<svg xmlns="http://www.w3.org/2000/svg" viewBox="0 0 249.425 249.425" width="512" height="512"><g fill="#beb173"><path d="M206.79 81.505a6 6 0 0 0-6 6v149.919H12V48.635h146.792a6 6 0 0 0 0-12H6a6 6 0 0 0-6 6v200.789a6 6 0 0 0 6 6h200.79a6 6 0 0 0 6-6V87.505a6 6 0 0 0-6-6z"/><path d="M247.667 1.758a5.998 5.998 0 0 0-8.485 0L80.416 160.523 41.023 121.13a5.998 5.998 0 0 0-8.485 0 5.999 5.999 0 0 0 0 8.484l43.636 43.636c1.171 1.172 2.707 1.758 4.243 1.758s3.071-.586 4.243-1.758L247.667 10.243a5.998 5.998 0 0 0 0-8.485z"/></g></svg>