<svg xmlns="http://www.w3.org/2000/svg" viewBox="0 0 512 512" width="512" height="512"><g fill="#beb173"><path d="M23.3 375.2c0 46.8 77.5 82.1 180.3 82.1 9.8 0 19.6-.3 29.1-1 6.7-.5 11.8-6.3 11.4-13.1-.5-6.8-6.3-11.8-13.1-11.4-9 .6-18.2 1-27.4 1-91.8 0-155.8-30.4-155.8-57.6v-51c30.7 24.1 87.7 39.6 155.8 39.6 6.2 0 12.4-.1 18.6-.4 6.8-.3 12-6 11.7-12.8-.3-6.8-6-12-12.8-11.7-5.8.3-11.7.4-17.5.4-91.8 0-155.8-30.4-155.8-57.6v-50.9c30.7 24.1 87.7 39.6 155.8 39.6 102.8 0 180.3-35.3 180.3-82.1V94.7c0-46.8-77.5-82.1-180.3-82.1-102.8 0-180.3 35.3-180.3 82.1v280.5zm180.3-129.4c-91.8 0-155.8-30.4-155.8-57.6v-51c30.7 24.1 87.7 39.6 155.8 39.6 68.1 0 125.1-15.5 155.8-39.6v51c.1 27.3-63.9 57.6-155.8 57.6zm0-208.8c91.8 0 155.8 30.4 155.8 57.6s-64 57.6-155.8 57.6S47.8 121.9 47.8 94.7 111.8 37 203.6 37z"/><path d="M254.7 382.5c0 64.5 52.5 117 117 117s117-52.5 117-117-52.5-117-117-117-117 52.4-117 117zm209.5 0c0 51-41.5 92.5-92.5 92.5s-92.5-41.5-92.5-92.5 41.5-92.5 92.5-92.5 92.5 41.4 92.5 92.5z"/><path d="M345.3 377.6c-4.8-4.8-12.5-4.8-17.3 0-4.8 4.8-4.8 12.5 0 17.3l20.7 20.8c2.4 2.4 5.5 3.6 8.7 3.6 3.1 0 6.2-1.2 8.6-3.6l49.4-49.2c4.8-4.8 4.8-12.5 0-17.3-4.8-4.8-12.5-4.8-17.3 0l-40.7 40.5-12.1-12.1z"/></g></svg>