<svg xmlns="http://www.w3.org/2000/svg" viewBox="0 0 58.009 58.009" width="512" height="512"><g fill="#beb173"><path d="M4 51.504h50a1 1 0 0 0 1-1v-9a1 1 0 0 0-1-1h-6v-26a1 1 0 0 0-1-1H30v-4h5a1 1 0 0 0 1-1v-3a1 1 0 0 0-1-1h-5v-2h-2v11H11a1 1 0 0 0-1 1v26H4a1 1 0 0 0-1 1v9a1 1 0 0 0 1 1zm30-45v1h-4v-1h4zm-22 9h34v25h-3v-23h-2v23h-3v-23h-2v23h-3v-23h-2v23h-4v-23h-2v23h-3v-23h-2v23h-3v-23h-2v23h-3v-25zm-7 27h10v.021h2v-.021h3v.021h2v-.021h3v.021h2v-.021h4v.021h2v-.021h3v.021h2v-.021h3v.021h2v-.021h10v7h-3v-5h-2v5h-3v-5h-2v5h-3v-5h-2v5h-3v-5h-2v5h-3v-5h-2v5h-3v-5h-2v5h-3v-5h-2v5h-3v-5h-2v5h-3v-5H8v5H5v-7zM0 53.504h58.009v2H0z"/></g></svg>