<svg xmlns="http://www.w3.org/2000/svg" viewBox="0 0 296.179 296.179" width="512" height="512"><path d="M283.568 135.915c.008-.1.013-.201.015-.303 0-.023.003-.047.004-.07l.002-.042c0-74.715-60.785-135.5-135.5-135.5s-135.5 60.785-135.5 135.5c0 .14.011.277.021.415-.169 1.506.261 3.072 1.354 4.288l128.545 143.011v7.465a5.5 5.5 0 1 0 11 0v-7.177l128.706-143.3c1.093-1.216 1.522-2.782 1.353-4.287zm-258.274.437c7.115-5.849 15.943-9.032 25.295-9.032 10.379 0 20.114 3.922 27.576 11.059l50.597 113.085L25.294 136.352zm117.295 119.082l-53.01-118.478c7.234-6.233 16.342-9.636 26.01-9.636 10.113 0 19.617 3.718 27 10.509v117.605zm24.825-3.874l50.602-113.182c7.462-7.136 17.195-11.058 27.574-11.058 9.353 0 18.182 3.184 25.298 9.034L167.414 251.56zm-13.825 3.97v-117.7c7.383-6.792 16.887-10.51 27-10.51 9.669 0 18.777 3.404 26.012 9.637L153.589 255.53zm92.001-139.21c-.001 0 0 0 0 0-12.029 0-23.387 4.122-32.5 11.704-9.114-7.583-20.47-11.704-32.5-11.704-.001 0 0 0 0 0-12.029 0-23.386 4.122-32.5 11.704-9.114-7.583-20.47-11.704-32.5-11.704-.001 0 0 0 0 0-12.029 0-23.386 4.122-32.5 11.704-9.114-7.583-20.47-11.704-32.5-11.704-9.488 0-18.556 2.565-26.436 7.368C30.123 60.559 83.424 11 148.089 11c64.665 0 117.967 49.559 123.936 112.688-7.88-4.803-16.948-7.368-26.435-7.368z" fill="#beb173"/></svg>