<svg xmlns="http://www.w3.org/2000/svg" viewBox="0 0 512.001 512.001" width="512" height="512"><path d="M490.581 71.662c-15.832-24.81-42.612-39.171-75.887-40.872V7.63a7.63 7.63 0 0 0-7.63-7.63h-54.93a7.63 7.63 0 1 0 0 15.26h47.3v48.418c0 102.568-38.82 194.294-96.597 228.25-20.483 12.037-33.183 34.502-33.146 58.629l.035 21.98h-27.444l.033-21.984c.036-24.126-12.666-46.588-33.146-58.622-57.78-33.954-96.6-125.681-96.6-228.252v-48.42h203.962a7.63 7.63 0 1 0 0-15.26H104.939a7.63 7.63 0 0 0-7.63 7.63V30.79C64.037 32.493 37.26 46.854 21.43 71.663c-18.112 28.38-18.716 65.734-1.658 102.483 12.961 27.911 38.504 51.287 75.919 69.48 27.896 13.564 52.31 19.158 55.001 19.751l6.223 1.372c13.287 17.161 28.27 30.784 44.524 40.335 15.83 9.302 25.645 26.716 25.618 45.446l-.033 22.007h-43.973c-20.695 0-37.471 16.777-37.471 37.471v9.323h-20.854a7.63 7.63 0 0 0-7.63 7.63v77.41a7.63 7.63 0 0 0 7.63 7.63h48.37a7.63 7.63 0 1 0 0-15.26h-40.741V434.59H379.654v62.151H208.702a7.63 7.63 0 1 0 0 15.26h178.582a7.63 7.63 0 0 0 7.63-7.63v-77.41a7.63 7.63 0 0 0-7.63-7.63H366.43v-9.323c0-20.694-16.777-37.471-37.471-37.471h-43.974l-.035-22.005c-.029-18.73 9.788-36.146 25.618-45.45 16.254-9.551 31.235-23.174 44.522-40.334l6.23-1.372c2.697-.595 27.148-6.21 54.994-19.75 37.417-18.194 62.959-41.57 75.914-69.482 17.056-36.744 16.456-74.095-1.647-102.482zM97.515 76.671c1.413 46.479 10.411 90.874 26.27 129.477a218.17 218.17 0 0 1-6.027-2.726c-19.81-9.343-45.688-25.35-56.466-48.56-10.346-22.28-10.809-43.629-1.27-58.574 7.272-11.403 20.45-18.237 37.493-19.617zm4.848 153.231c-23.497-11.424-54.498-31.487-68.751-62.182-14.82-31.928-14.571-63.948.682-87.85C47.248 59.568 69.465 47.722 97.31 46.082v15.313c-22.405 1.553-40.07 10.873-50.152 26.686-12.398 19.423-12.291 46.106.294 73.207 12.703 27.356 41.705 45.516 63.792 55.932 6.828 3.225 14.105 6.216 21.641 8.941 3.452 6.875 7.101 13.432 10.939 19.645-9.614-2.79-24.978-7.89-41.461-15.904zm226.596 157.893c12.248 0 22.212 9.964 22.212 22.212v9.323H160.84v-9.323c0-12.248 9.964-22.212 22.212-22.212h145.907zM414.491 76.67c17.038 1.379 30.219 8.216 37.499 19.617 9.531 14.947 9.064 36.296-1.281 58.573-10.783 23.22-36.657 39.224-56.466 48.561-1.97.93-3.983 1.834-6.02 2.721 15.856-38.601 24.854-82.994 26.268-129.472zm63.897 91.049c-14.249 30.695-45.249 50.758-68.747 62.183-16.462 8.004-31.839 13.108-41.46 15.901 3.84-6.216 7.49-12.776 10.943-19.655 7.494-2.705 14.767-5.69 21.626-8.926 22.089-10.412 51.09-28.568 63.797-55.935 12.583-27.096 12.695-53.778.305-73.207-10.095-15.813-27.761-25.134-50.159-26.685V46.083c27.847 1.637 50.067 13.484 63.021 33.785 15.248 23.906 15.493 55.926.674 87.851z" fill="#beb173"/></svg>